<?xml version="1.0"?>
<svg xmlns="http://www.w3.org/2000/svg" viewBox="0 0 16 16">
    <path style="line-height:normal;text-indent:0;text-align:start;text-decoration-line:none;text-decoration-style:solid;text-decoration-color:#000;text-transform:none;block-progression:tb;isolation:auto;mix-blend-mode:normal" d="M 2.5 2 C 1.673 2 1 2.673 1 3.5 L 1 12.5 C 1 13.327 1.673 14 2.5 14 L 7.4101562 14 L 7.6484375 13 L 2.5 13 C 2.224 13 2 12.776 2 12.5 L 2 11.572266 L 5.5566406 7.5664062 L 9.1269531 11.332031 L 9.828125 10.619141 L 9.2324219 9.9902344 L 10.517578 8.5449219 L 11.179688 9.2421875 L 11.880859 8.5292969 L 10.494141 7.0664062 L 8.5429688 9.2636719 L 5.5332031 6.0898438 L 2 10.066406 L 2 3.5 C 2 3.224 2.224 3 2.5 3 L 13.5 3 C 13.776 3 14 3.224 14 3.5 L 14 7.0214844 C 14.067 7.0154844 14.132219 7 14.199219 7 L 14.224609 7 L 14.248047 7.0019531 C 14.516047 7.0139531 14.766 7.0692969 15 7.1542969 L 15 3.5 C 15 2.673 14.327 2 13.5 2 L 2.5 2 z M 11 4 A 1 1 0 0 0 10 5 A 1 1 0 0 0 11 6 A 1 1 0 0 0 12 5 A 1 1 0 0 0 11 4 z M 14.205078 8.0039062 C 13.87855 8.0059963 13.553783 8.1310493 13.310547 8.3808594 L 8.6464844 13.123047 L 7.9511719 16.048828 L 10.876953 15.353516 L 10.974609 15.255859 L 15.619141 10.689453 C 16.118761 10.202981 16.12374 9.3874144 15.630859 8.8945312 L 15.105469 8.3691406 C 14.859027 8.1226991 14.531606 8.0018122 14.205078 8.0039062 z M 14.210938 8.9960938 C 14.277619 8.9957637 14.344879 9.0226118 14.398438 9.0761719 L 14.923828 9.6015625 C 15.030945 9.7086795 15.030302 9.8690817 14.921875 9.9746094 L 14.919922 9.9746094 L 10.376953 14.443359 L 9.2988281 14.701172 L 9.5546875 13.626953 L 14.025391 9.0800781 L 14.025391 9.078125 C 14.078154 9.0239351 14.144256 8.9964238 14.210938 8.9960938 z" font-weight="400" font-family="sans-serif" white-space="normal" overflow="visible"/>
</svg>
